<svg width="44" height="44" viewBox="0 0 44 44" fill="none" xmlns="http://www.w3.org/2000/svg">
<path d="M17.9666 36.2083H26.0332L24.6582 33.2749L23.4666 30.5249H20.5332L19.3415 33.2749L17.9666 36.2083Z" fill="#FF7058"/>
<path d="M12.8333 36.2085H31.1667C32.175 36.2085 33 37.0335 33 38.0418V44.0001H11.0916V38.0418C11 37.0335 11.825 36.2085 12.8333 36.2085Z" fill="#FFD15C"/>
<path d="M19.3414 33.275C20.0748 33.6417 20.8081 34.0083 21.5415 34.2834L21.9998 34.3751L22.4582 34.1917C23.1915 33.9167 23.9248 33.5501 24.6582 33.1834L23.4665 30.4333H20.6248L19.3414 33.275Z" fill="#F1543F"/>
<path d="M44 5.04175V8.8001C44 17.9668 38.3166 25.8501 30.3416 29.1502C27.775 30.2502 24.9333 30.8001 22 30.8001C19.0666 30.8001 16.2249 30.2502 13.6583 29.1502C5.68327 25.8502 -8.7738e-05 17.9668 -8.7738e-05 8.80018V5.04175H44ZM3.66668 8.8001C3.66668 13.2001 5.22498 17.2335 7.88332 20.4418C11.275 24.475 16.3167 27.1335 22 27.1335C27.6832 27.1335 32.725 24.5668 36.1166 20.4418C38.6833 17.3251 40.3332 13.2001 40.3332 8.8001V8.70842H3.75835V8.8001H3.66668Z" fill="#F8B64C"/>
<path d="M7.70029 0H36.3004C36.942 0 37.4004 0.549966 37.4004 1.10002C37.4004 1.74166 36.9421 2.29172 36.3004 2.29172H7.70029C7.05865 2.29172 6.60027 1.74175 6.60027 1.1917C6.60036 0.549966 7.05865 0 7.70029 0Z" fill="#F8B64C"/>
<path d="M7.69884 2.2915V12.1915C7.69884 21.3582 13.3822 29.6999 21.9988 32.9999C30.6155 29.6082 36.2988 21.3582 36.2988 12.0998V2.2915H7.69884Z" fill="#FFD15C"/>
<path d="M21.9997 6.41675L20.0747 12.2834H13.933L18.883 15.95L17.0497 21.8168L21.9997 18.1501L26.9497 21.8168L25.1164 15.95L30.0664 12.2834H23.9247L21.9997 6.41675Z" fill="white"/>
<path d="M7.79247 2.2915H36.3008V3.66646H7.79247V2.2915Z" fill="#FFC952"/>
</svg>
