<svg width="51" height="51" viewBox="0 0 51 51" fill="none" xmlns="http://www.w3.org/2000/svg">
<path d="M26.7142 0H24.2856V1.11714H26.7142V0Z" fill="#34495E"/>
<path d="M1.11714 24.2857H0V26.7143H1.11714V24.2857Z" fill="#34495E"/>
<path d="M26.7142 49.8829H24.2856V51.0001H26.7142V49.8829Z" fill="#34495E"/>
<path d="M50.9995 24.2857H49.8823V26.7143H50.9995V24.2857Z" fill="#34495E"/>
<path d="M25.5005 1.11707C12.0462 1.11707 1.11768 12.0456 1.11768 25.4999C1.11768 38.9542 12.0462 49.8828 25.5005 49.8828C38.9548 49.8828 49.8834 38.9542 49.8834 25.4999C49.8834 12.0456 38.9548 1.11707 25.5005 1.11707ZM25.5005 39.7313C17.632 39.7313 11.2691 33.3685 11.2691 25.4999C11.2691 17.6314 17.632 11.2685 25.5005 11.2685C33.3691 11.2685 39.732 17.6314 39.732 25.4999C39.732 33.3685 33.3691 39.7313 25.5005 39.7313Z" fill="#E6EAEE"/>
<path d="M25.5003 48.9599C12.5803 48.9599 2.08887 38.4685 2.08887 25.4999C2.08887 12.5799 12.5803 2.0885 25.5003 2.0885C38.4203 2.0885 48.9603 12.5799 48.9603 25.4999C48.9603 38.4199 38.4203 48.9599 25.5003 48.9599ZM25.5003 10.3456C17.146 10.3456 10.346 17.1456 10.346 25.4999C10.346 33.8542 17.146 40.6542 25.5003 40.6542C33.8546 40.6542 40.6546 33.8542 40.6546 25.4999C40.6546 17.1456 33.8546 10.3456 25.5003 10.3456Z" fill="#EEF1F7"/>
<path d="M11.4636 25.5003C11.4636 23.606 11.8522 21.7603 12.5322 20.1089L2.86645 16.126C1.65217 18.9918 0.972168 22.1975 0.972168 25.5003C0.972168 28.8032 1.65217 32.0089 2.81788 34.8746L12.4836 30.8432C11.8522 29.2403 11.4636 27.3946 11.4636 25.5003Z" fill="#FF7059"/>
<path d="M16.126 2.86597L20.1574 12.5317C21.8088 11.8517 23.6545 11.4631 25.5488 11.4631C27.4431 11.4631 29.2888 11.8517 30.9403 12.5317L34.9717 2.86597C32.0088 1.65168 28.8031 0.97168 25.5003 0.97168C22.1974 0.97168 18.9917 1.65168 16.126 2.86597Z" fill="#FF7059"/>
<path d="M48.1345 34.8746C49.3488 31.9603 49.9802 28.8032 49.9802 25.5003C49.9802 22.1975 49.3002 18.9918 48.1345 16.126L38.4688 20.1575C39.1488 21.8089 39.5373 23.6546 39.5373 25.5489C39.5373 27.4432 39.1488 29.2889 38.4688 30.9403L48.1345 34.8746Z" fill="#FF7059"/>
<path d="M34.875 48.1346L30.8436 38.4689C29.1922 39.1489 27.3464 39.5375 25.4522 39.5375C23.5579 39.5375 21.7122 39.1489 20.0607 38.4689L16.0293 48.1346C18.9436 49.3489 22.1007 49.9804 25.4036 49.9804C28.8036 50.0289 32.0093 49.3489 34.875 48.1346Z" fill="#FF7059"/>
</svg>
