<svg width="46" height="52" viewBox="0 0 46 52" fill="none" xmlns="http://www.w3.org/2000/svg">
<path d="M28.9578 39.7584C29.6078 37.5917 30.9078 35.6418 32.6412 34.125C35.8912 31.4167 37.9496 27.3 37.9496 22.75C37.9496 14.3 30.9079 7.36667 22.2412 7.80003C14.5495 8.12503 8.26612 14.625 8.04949 22.3167C7.94112 27.0834 9.99949 31.3084 13.3579 34.125C15.1995 35.6416 16.4995 37.5916 17.1495 39.7584H28.9578Z" fill="#FFCD1D"/>
<path d="M21.5911 39.975H22.5661L18.2327 23.8333C18.3411 23.8333 18.4494 23.8333 18.5577 23.8333C19.0994 23.8333 19.6411 23.6167 20.0744 23.1833C20.291 22.9667 20.5077 22.8583 20.8327 22.8583C21.1577 22.8583 21.3744 22.9667 21.5911 23.1833C22.3495 24.05 23.6495 24.05 24.4077 23.1833C24.6244 22.9667 24.8411 22.8583 25.1661 22.8583C25.3827 22.8583 25.7077 22.9667 25.9245 23.1833C26.3578 23.6167 26.7911 23.8333 27.4411 23.8333C27.5495 23.8333 27.6577 23.8333 27.7661 23.8333L23.5411 39.975H24.5161L28.9577 23.075C28.9577 22.8583 28.9577 22.6416 28.7411 22.5333C28.5245 22.425 28.3077 22.5333 28.1995 22.6417C27.9828 22.8583 27.7661 22.9667 27.5495 22.9667C27.2245 22.9667 27.0078 22.8583 26.6828 22.6417C26.2495 22.2083 25.8162 21.9917 25.2745 21.9917C24.7327 21.9917 24.2995 22.2083 23.8661 22.6417C23.4327 23.0751 22.7827 23.0751 22.3495 22.6417C22.0245 22.2083 21.4828 21.9917 20.9411 21.9917C20.3995 21.9917 19.8577 22.2083 19.5327 22.6417C19.3161 22.8583 18.9911 22.9667 18.6661 22.9667C18.4495 22.9667 18.1245 22.8583 18.0161 22.6417C17.9077 22.5333 17.6911 22.4251 17.4745 22.5333C17.2578 22.6417 17.1495 22.8583 17.2578 23.075L21.5911 39.975Z" fill="white"/>
<path d="M19.6411 49.7249C20.1828 51.0248 21.4828 51.9998 22.9995 51.9998C24.5161 51.9998 25.8161 51.0248 26.3579 49.7249H19.6411Z" fill="#344A5E"/>
<path d="M27.0073 49.8333H19.0989C18.0156 49.8333 17.1489 48.9666 17.1489 47.8833V39.6499H28.9573V47.8833C28.9573 48.9665 28.0906 49.8333 27.0073 49.8333Z" fill="#344A5E"/>
<path d="M28.8496 43.7666H17.1496C16.4996 43.7666 15.958 43.2249 15.958 42.5749C15.958 41.9249 16.4996 41.3833 17.1496 41.3833H28.8496C29.4996 41.3833 30.0413 41.9249 30.0413 42.5749C30.0413 43.2249 29.4996 43.7666 28.8496 43.7666Z" fill="#415A6B"/>
<path d="M28.8486 47.5583H17.1487C16.4987 47.5583 15.957 47.0167 15.957 46.3667C15.957 45.7167 16.4987 45.175 17.1487 45.175H28.8486C29.4986 45.175 30.0403 45.7167 30.0403 46.3667C30.0403 47.0166 29.4986 47.5583 28.8486 47.5583Z" fill="#415A6B"/>
<path d="M22.9984 0C22.4568 0 21.915 0.433367 21.915 1.08337V4.76673C21.915 5.30836 22.3484 5.8501 22.9984 5.8501C23.6484 5.8501 24.0818 5.41673 24.0818 4.76673V1.08337C24.0818 0.433367 23.54 0 22.9984 0Z" fill="#FFD15C"/>
<path d="M8.48371 6.60847C8.05034 6.17511 7.40034 6.17511 6.96708 6.60847C6.53381 7.04184 6.53371 7.69184 6.96708 8.1251L9.56708 10.7251C10.0004 11.1585 10.6504 11.1585 11.0837 10.7251C11.517 10.2917 11.5171 9.64173 11.0837 9.20847L8.48371 6.60847Z" fill="#FFD15C"/>
<path d="M5.12415 21.5583H1.44079C0.899156 21.5583 0.357422 21.9917 0.357422 22.6417C0.357422 23.1833 0.790789 23.7251 1.44079 23.7251H5.12415C5.66579 23.7251 6.20752 23.2917 6.20752 22.6417C6.20752 22.1 5.66579 21.5583 5.12415 21.5583Z" fill="#FFD15C"/>
<path d="M9.56565 34.5584L6.96565 37.1584C6.53228 37.5918 6.53228 38.2417 6.96565 38.675C7.39902 39.1083 8.04902 39.1084 8.48228 38.675L11.0823 36.075C11.5156 35.6417 11.5156 34.9917 11.0823 34.5584C10.6489 34.1251 9.99901 34.125 9.56565 34.5584Z" fill="#FFD15C"/>
<path d="M36.4336 34.5584C36.0002 34.1251 35.3502 34.1251 34.9168 34.5584C34.4835 34.9918 34.4835 35.6418 34.9168 36.0751L37.5168 38.675C37.9502 39.1084 38.6002 39.1084 39.0335 38.675C39.4667 38.2417 39.4668 37.5917 39.0335 37.1584L36.4336 34.5584Z" fill="#FFD15C"/>
<path d="M44.5568 21.5583H40.8734C40.3318 21.5583 39.79 21.9917 39.79 22.6417C39.79 23.1833 40.2234 23.7251 40.8734 23.7251H44.5568C45.0984 23.7251 45.6401 23.2917 45.6401 22.6417C45.64 22.1 45.2068 21.5583 44.5568 21.5583Z" fill="#FFD15C"/>
<path d="M37.5168 6.60819L34.9168 9.20819C34.4835 9.64156 34.4835 10.2916 34.9168 10.7248C35.3502 11.1582 36.0002 11.1582 36.4334 10.7248L39.0334 8.12482C39.4668 7.69146 39.4668 7.04146 39.0334 6.60819C38.6001 6.17492 37.9502 6.17482 37.5168 6.60819Z" fill="#FFD15C"/>
</svg>
