<svg width="27" height="37" viewBox="0 0 27 37" fill="none" xmlns="http://www.w3.org/2000/svg">
<path d="M20.2108 0.539082C16.792 -0.368573 13.1661 -0.132397 9.89698 1.21087C6.62785 2.55414 3.89883 4.92919 2.13441 7.96659C0.369993 11.004 -0.330903 14.5334 0.140747 18.0059C0.612398 21.4784 2.23015 24.6993 4.74237 27.1675V27.1675L22.6287 9.46536C23.2975 8.8029 23.7784 7.97788 24.023 7.07319C24.2677 6.1685 24.2674 5.21601 24.0224 4.31142C23.7774 3.40684 23.2962 2.58202 22.6271 1.91984C21.958 1.25767 21.1247 0.781466 20.2108 0.539082V0.539082Z" fill="url(#paint0_linear_1_2235)"/>
<path d="M6.789 36.4596C10.2098 37.3702 13.8389 37.1355 17.1109 35.792C20.383 34.4485 23.1144 32.0718 24.8799 29.0318C26.6454 25.9918 27.3457 22.4592 26.872 18.9842C26.3982 15.5092 24.7769 12.2868 22.2605 9.81885L4.37419 27.5333C3.70538 28.1956 3.22441 29.0204 2.97957 29.9249C2.73474 30.8294 2.73467 31.7817 2.97937 32.6862C3.22408 33.5908 3.70493 34.4156 4.37364 35.078C5.04235 35.7403 5.87536 36.2168 6.789 36.4596V36.4596Z" fill="url(#paint1_linear_1_2235)"/>
<path style="mix-blend-mode:multiply" d="M22.2605 9.81885L4.37419 27.5333C3.70538 28.1956 3.22441 29.0204 2.97957 29.9249C2.73474 30.8294 2.73467 31.7817 2.97937 32.6862C3.22408 33.5908 3.70493 34.4156 4.37364 35.078C5.04235 35.7403 5.87536 36.2168 6.789 36.4596C8.70167 36.9645 10.6919 37.1164 12.6602 36.9076C4.81747 29.4388 22.2605 9.81885 22.2605 9.81885Z" fill="url(#paint2_linear_1_2235)"/>
<g style="mix-blend-mode:multiply">
<path style="mix-blend-mode:multiply" d="M6.46017 36.362C3.92136 28.5803 19.1697 12.9094 21.8604 10.2275L4.37395 27.5339C3.72563 28.1758 3.25344 28.9707 3.00202 29.8436C2.7506 30.7165 2.72826 31.6384 2.93711 32.5222C3.14597 33.406 3.57912 34.2224 4.19559 34.8943C4.81207 35.5662 5.5915 36.0714 6.46017 36.362V36.362Z" fill="url(#paint3_linear_1_2235)"/>
<path style="mix-blend-mode:multiply" d="M22.2012 9.88984C22.2198 9.86941 22.2394 9.84995 22.2601 9.83154V9.83154L22.2012 9.88984Z" fill="url(#paint4_linear_1_2235)"/>
</g>
<path style="mix-blend-mode:screen" d="M23.9405 7.36426L4.72119 27.1561L22.6292 9.46618C23.2274 8.87751 23.6767 8.15732 23.9405 7.36426V7.36426Z" fill="url(#paint5_radial_1_2235)"/>
<defs>
<linearGradient id="paint0_linear_1_2235" x1="16.4103" y1="-16.6936" x2="10.5878" y2="20.6652" gradientUnits="userSpaceOnUse">
<stop stop-color="#0096D9"/>
<stop offset="1" stop-color="#00C198"/>
</linearGradient>
<linearGradient id="paint1_linear_1_2235" x1="9.13561" y1="13.6177" x2="18.5048" y2="32.4244" gradientUnits="userSpaceOnUse">
<stop stop-color="#002DD9"/>
<stop offset="1" stop-color="#00B2AB"/>
</linearGradient>
<linearGradient id="paint2_linear_1_2235" x1="23.8074" y1="-3.42481" x2="6.08277" y2="38.1709" gradientUnits="userSpaceOnUse">
<stop stop-color="#3482C0"/>
<stop offset="0.45" stop-color="#96BEDE"/>
<stop offset="0.83" stop-color="#E1EDF6"/>
<stop offset="1" stop-color="white"/>
</linearGradient>
<linearGradient id="paint3_linear_1_2235" x1="1361.37" y1="132.275" x2="-132.261" y2="2238.51" gradientUnits="userSpaceOnUse">
<stop stop-color="#3482C0"/>
<stop offset="0.45" stop-color="#96BEDE"/>
<stop offset="0.83" stop-color="#E1EDF6"/>
<stop offset="1" stop-color="white"/>
</linearGradient>
<linearGradient id="paint4_linear_1_2235" x1="25.673" y1="3.26808" x2="10.5949" y2="32.7125" gradientUnits="userSpaceOnUse">
<stop stop-color="#569FA1"/>
<stop offset="0.36" stop-color="#97C4C5"/>
<stop offset="0.8" stop-color="#E2EEEF"/>
<stop offset="1" stop-color="white"/>
</linearGradient>
<radialGradient id="paint5_radial_1_2235" cx="0" cy="0" r="1" gradientUnits="userSpaceOnUse" gradientTransform="translate(21.5939 32.3818) scale(27.8184 27.5367)">
<stop stop-color="#FFFF00"/>
<stop offset="1"/>
</radialGradient>
</defs>
</svg>
