<svg width="48" height="48" viewBox="0 0 48 48" fill="none" xmlns="http://www.w3.org/2000/svg">
<g clip-path="url(#clip0_1_2287)">
<path d="M13.1805 17.7919C10.2226 17.3898 6.77214 18.6686 4.39031 21.0508L0.412889 25.0282C-0.0368176 25.4779 -0.129103 26.1741 0.189501 26.7256C0.500414 27.2698 1.15154 27.547 1.77117 27.3811C4.29509 26.7044 7.63567 26.4792 8.45708 27.1065L13.1805 17.7919Z" fill="#FF637B"/>
<path d="M30.1211 34.8408L20.7929 39.3408C21.3126 40.0487 21.2716 42.2877 20.6658 46.3878C20.5754 46.9943 20.8889 47.5813 21.4243 47.849C21.9659 48.1229 22.6214 48.0171 23.0506 47.5879L27.028 43.6105C29.2751 41.3634 30.4898 37.921 30.1211 34.8408Z" fill="#E63950"/>
<path d="M22.1968 39.8207C18.9155 41.5906 18.498 41.6902 18.0007 42.0282C17.4437 42.386 16.7278 42.3065 16.2506 41.8293L6.30687 31.8856C5.84947 31.4282 5.75023 30.6921 6.10801 30.1355C6.44603 29.6382 6.48594 29.3199 8.27562 25.8995L12.2135 25.8596L22.1572 35.8033L22.1968 39.8207Z" fill="#7C8388"/>
<path d="M22.196 39.8207C18.9148 41.5906 18.4973 41.6902 18 42.0282C17.443 42.386 16.7271 42.3065 16.2499 41.8293L11.2778 36.8573L17.2441 30.8914L22.1561 35.8033L22.196 39.8207Z" fill="#575F64"/>
<path d="M22.196 39.8207L8.2749 25.8996C15.1758 12.8735 23.469 4.73925 33.0944 1.55762L39.8561 8.2794L46.4585 14.8822C43.2769 24.4677 35.1628 32.8202 22.196 39.8207Z" fill="#FAECD8"/>
<path d="M22.1967 39.8207L15.2559 32.8799L39.8568 8.2793L46.4592 14.8817C43.2776 24.4677 35.1635 32.8202 22.1967 39.8207Z" fill="#F4D7AF"/>
<path d="M35.5212 12.6149L35.4615 12.5552C32.7171 9.81087 28.2621 9.8105 25.5178 12.5552C22.7734 15.2996 22.7734 19.7546 25.5178 22.4986L25.5775 22.5583C28.3218 25.2232 32.7369 25.2232 35.4615 22.4986C38.1861 19.7744 38.1861 15.359 35.5212 12.6149Z" fill="#64E1DC"/>
<path d="M35.4612 22.4986C32.7366 25.2233 28.3215 25.2233 25.5771 22.5583L35.5209 12.615C38.1858 15.359 38.1858 19.7744 35.4612 22.4986Z" fill="#00C8C8"/>
<path d="M46.4588 14.8818C43.4164 14.6631 40.1549 13.2313 37.5098 10.626L37.4501 10.5663C34.7852 7.90142 33.2936 4.6198 33.0947 1.55718C34.0095 1.23894 34.9441 0.980398 35.879 0.76177C39.2796 -0.0138649 42.8396 -0.192942 46.5387 0.205129C46.8964 0.24468 47.2345 0.423757 47.4333 0.702078C47.6322 0.90093 47.7717 1.15948 47.7915 1.45794C48.2093 5.13689 47.9903 8.69683 47.2147 12.0975C46.9961 13.0324 46.7573 13.9472 46.4588 14.8818Z" fill="#FF637B"/>
<path d="M46.4594 14.8818C43.4169 14.6632 40.1554 13.2313 37.5103 10.6261L47.4338 0.702148C47.6327 0.901001 47.7719 1.15955 47.792 1.45801C48.2095 5.13733 47.9908 8.6969 47.2152 12.0975C46.9966 13.0325 46.7578 13.9473 46.4594 14.8818Z" fill="#E63950"/>
<path d="M21.9574 27.4508C21.9376 27.1125 21.7985 26.8144 21.5597 26.5756C21.3209 26.2574 20.9434 26.0387 20.5457 26.0387C15.3748 25.9988 14.2212 27.8284 13.9231 28.1269C5.31201 36.7379 5.2124 40.9743 5.2124 41.4115C5.23218 41.7894 5.37134 42.1278 5.62988 42.386C5.64966 42.4058 5.6698 42.4259 5.70972 42.4259C5.90857 42.6248 6.18689 42.7442 6.48499 42.7639C7.20093 42.8434 11.238 42.7442 19.889 34.0932C21.8384 32.1442 21.9775 30.3344 21.9574 27.4508Z" fill="#FF637B"/>
<path d="M21.9576 27.4507C21.9778 30.3342 21.8386 32.144 19.8893 34.093C11.2383 42.744 7.20117 42.8433 6.4856 42.7638C6.18713 42.744 5.90881 42.6246 5.70996 42.4258L21.5603 26.5754C21.7987 26.8142 21.9379 27.1123 21.9576 27.4507Z" fill="#E63950"/>
</g>
<defs>
<clipPath id="clip0_1_2287">
<rect width="48" height="48" fill="white"/>
</clipPath>
</defs>
</svg>
