<svg width="121" height="121" viewBox="0 0 121 121" fill="none" xmlns="http://www.w3.org/2000/svg">
<g opacity="0.6">
<path d="M76.8011 27.6576L75.5278 25.9983L73.6327 26.2836L73.4282 24.2021L74.0682 24.2582L73.0868 22.9469L78.9223 18.1704L79.6101 25.7756L77.9821 25.9554L78.4604 26.3843L76.8011 27.6576Z" fill="#28DCB2"/>
<path d="M88.2811 69.6139L86.132 66.9106L90.8427 63.1962L92.9918 65.8996L88.2811 69.6139ZM81.3307 60.6214L79.1816 57.9181L83.8923 54.2037L86.0414 56.9071L81.3307 60.6214ZM75.6982 49.1005L75.4195 45.6582L81.3968 45.1502L81.6756 48.5925L75.6982 49.1005ZM74.6262 37.7857L74.3475 34.3434L80.3249 33.8355L80.6036 37.2777L74.6262 37.7857Z" fill="#28DCB2"/>
<path d="M95.1492 78.792L94.9694 77.164L94.3542 77.5615L93.2673 75.9831L94.7402 74.6289L94.6413 72.8146L96.5364 72.5293L96.6667 73.2501L97.978 72.2687L102.755 78.1043L95.1492 78.792Z" fill="#28DCB2"/>
<path d="M54.9465 92.3585L51.2322 87.6478L53.9355 85.4987L57.6499 90.2093L54.9465 92.3585ZM64.0198 85.2217L60.3055 80.511L63.0089 78.3619L66.7232 83.0726L64.0198 85.2217ZM72.3344 80.8559L71.8265 74.8785L75.2687 74.5998L75.7767 80.5771L72.3344 80.8559ZM83.8355 79.8647L83.3276 73.8873L86.7699 73.6086L87.2778 79.586L83.8355 79.8647Z" fill="#28DCB2"/>
<path d="M42.633 101.855L42.1317 94.3302L43.7596 94.1505L43.3621 93.5353L44.9406 92.4483L46.1083 93.8404L48.109 93.8223L48.3944 95.7174L47.6736 95.8477L48.655 97.159L42.633 101.855Z" fill="#28DCB2"/>
<path d="M41.34 86.4578L41.0613 83.0155L47.0387 82.5076L47.3174 85.9498L41.34 86.4578ZM40.3489 74.9566L40.0702 71.5144L46.0475 71.0064L46.3263 74.4487L40.3489 74.9566ZM37.8535 65.9032L35.7044 63.1998L40.415 59.4855L42.5641 62.1888L37.8535 65.9032ZM30.7167 56.8298L28.5676 54.1265L33.2783 50.4121L35.4274 53.1155L30.7167 56.8298Z" fill="#28DCB2"/>
<path d="M23.7676 47.838L19.0718 41.816L26.5963 41.3147L26.7761 42.9426L27.2049 42.4643L28.4782 44.1236L26.8998 45.2105L27.1043 47.292L25.0227 47.4965L25.0788 46.8566L23.7676 47.838Z" fill="#28DCB2"/>
<path d="M34.9759 46.4982L34.4679 40.5209L37.9102 40.2422L38.4181 46.2195L34.9759 46.4982ZM46.477 45.5071L45.9691 39.5297L49.4113 39.251L49.9193 45.2284L46.477 45.5071ZM58.7369 41.745L55.0225 37.0343L57.7259 34.8852L61.4402 39.5959L58.7369 41.745ZM67.7294 34.7946L64.015 30.0839L66.7184 27.9348L70.4327 32.6455L67.7294 34.7946Z" fill="#28DCB2"/>
</g>
</svg>
