<svg width="46" height="48" viewBox="0 0 46 48" fill="none" xmlns="http://www.w3.org/2000/svg">
<path d="M22.9582 38.1165C33.4838 38.1165 42.0164 29.5839 42.0164 19.0583C42.0164 8.53268 33.4838 0 22.9582 0C12.4326 0 3.8999 8.53268 3.8999 19.0583C3.8999 29.5839 12.4326 38.1165 22.9582 38.1165Z" fill="#FFD15C"/>
<path d="M7.51842 30.2081L0.960938 41.5751L8.61448 41.1688L12.0916 48.0003L18.1578 37.4837C13.8113 36.3593 10.079 33.742 7.51842 30.2081Z" fill="#40596B"/>
<path d="M38.4343 30.1512C35.8925 33.6945 32.1603 36.3213 27.8232 37.4646L33.9083 48L37.3854 41.1685L45.039 41.5748L38.4343 30.1512Z" fill="#40596B"/>
<path d="M22.9572 32.8725C30.5866 32.8725 36.7714 26.6877 36.7714 19.0583C36.7714 11.429 30.5866 5.24414 22.9572 5.24414C15.3279 5.24414 9.14307 11.429 9.14307 19.0583C9.14307 26.6877 15.3279 32.8725 22.9572 32.8725Z" fill="#F8B64C"/>
<path d="M32.4247 17.565C32.8498 17.1492 32.6136 16.4217 32.0278 16.3366L26.5758 15.5429C26.3396 15.5051 26.1412 15.3634 26.0372 15.1461L23.5995 10.2044C23.3349 9.66577 22.5695 9.66577 22.305 10.2044L19.8766 15.1461C19.7727 15.354 19.5648 15.5051 19.338 15.5429L13.8861 16.3366C13.3002 16.4217 13.064 17.1492 13.4892 17.565L17.4294 21.4106C17.5995 21.5807 17.675 21.8169 17.6372 22.0437L16.7113 27.4673C16.6073 28.0532 17.2309 28.5067 17.7601 28.2232L22.6357 25.6626C22.8435 25.5492 23.0987 25.5492 23.3065 25.6626L28.1821 28.2232C28.7113 28.4973 29.3254 28.0532 29.231 27.4673L28.2955 22.0437C28.2577 21.8075 28.3333 21.5713 28.5034 21.4106L32.4247 17.565Z" fill="white"/>
</svg>
