<svg width="78" height="64" viewBox="0 0 78 64" fill="none" xmlns="http://www.w3.org/2000/svg">
<g opacity="0.7">
<path d="M1.96331 60.4597C1.7593 60.4525 1.55528 60.4452 1.35126 60.438C0.345692 59.9937 -0.230087 58.9518 0.214214 57.9463L6.34647 40.5967C6.79078 39.5912 7.83262 39.0154 8.83819 39.4597C9.84376 39.904 10.4195 40.9458 9.97524 41.9514L3.84298 59.3009C3.41319 59.8985 2.77938 60.4888 1.96331 60.4597Z" fill="#54EACE"/>
<path d="M8.08938 43.3135C7.0693 43.2772 6.28225 42.4321 6.31852 41.412C6.35478 40.3919 7.0031 39.3936 8.2272 39.4372L26.4427 38.4506C27.47 38.2829 28.4611 39.1352 28.4175 40.3593C28.3813 41.3794 27.7329 42.3777 26.5088 42.3342L8.08938 43.3135C8.29339 43.3207 8.08938 43.3135 8.08938 43.3135Z" fill="#54EACE"/>
<path d="M26.2973 42.531C26.0933 42.5238 25.8893 42.5165 25.6852 42.5093C24.6797 42.065 24.1039 41.0231 24.5482 40.0175L30.6805 22.668C31.1248 21.6625 32.1666 21.0867 33.1722 21.531C34.1777 21.9753 34.7535 23.0171 34.3092 24.0227L28.1842 41.1682C27.9512 41.977 27.1134 42.56 26.2973 42.531Z" fill="#54EACE"/>
<path d="M32.6256 25.3931C31.6056 25.3568 30.8185 24.5117 30.8548 23.4916C30.8911 22.4715 31.5394 21.4732 32.7635 21.5167L50.9789 20.5302C51.999 20.5665 52.9973 21.2148 52.9538 22.4389C52.9175 23.459 52.2692 24.4573 51.0451 24.4138L32.6256 25.3931Z" fill="#54EACE"/>
<path d="M50.8422 24.406C50.6382 24.3988 50.4342 24.3915 50.2302 24.3843C49.2246 23.94 48.6488 22.8981 49.0931 21.8925L55.2254 4.54302C55.6697 3.53745 56.7115 2.96167 57.7171 3.40597C58.7227 3.85027 59.2984 4.89212 58.8541 5.89769L52.7219 23.2472C52.4889 24.056 51.6583 24.435 50.8422 24.406Z" fill="#54EACE"/>
<path d="M57.1642 7.47167C56.1441 7.4354 55.3571 6.59032 55.3934 5.57024C55.4296 4.55016 56.0779 3.55184 57.302 3.59536L75.5175 2.60882C76.5376 2.64509 77.5359 3.29341 77.4924 4.5175C77.4561 5.53758 76.8078 6.5359 75.5837 6.49238L57.1642 7.47167Z" fill="#54EACE"/>
</g>
</svg>
